<svg xmlns="http://www.w3.org/2000/svg" xmlns:xlink="http://www.w3.org/1999/xlink" viewBox="0 0 28 28"><g fill="none"><path d="M14 2a3 3 0 1 0 0 6.001A3 3 0 0 0 14 2zm10.534 5.065a2.197 2.197 0 0 0-2.873-1.393l-3.267 1.236a.75.75 0 0 0-.39.336A4.584 4.584 0 0 1 14 9.594A4.584 4.584 0 0 1 10.028 7.3a.75.75 0 0 0-.392-.329l-3.43-1.254A2.14 2.14 0 0 0 4.7 9.723l4.798 1.85v4.143l-2.58 7.129a2.28 2.28 0 0 0 4.273 1.59l1.96-5.125c.307-.802 1.44-.808 1.754-.009l2.052 5.21a2.232 2.232 0 0 0 4.175-1.581L18.5 15.7v-4.132l4.717-1.785a2.197 2.197 0 0 0 1.317-2.718z" fill="currentColor"></path></g></svg>